#!OML:ASF H:\Terrain\Patient Classification 1\Walking\liu\liu.ASF
:FULLY-SPECIFIED
:DEGREES
222
root 9.62073 17.4903 13.0904 5.37694 -3.58123 1.31377
lowerback -4.91063 0.039738 -2.4724
upperback -1.62824 0.156708 0.962608
thorax 1.06908 0.081491 2.38604
lowerneck -22.2886 -1.8604 -10.8813
upperneck 28.7365 -1.767 9.74464
head 13.6354 -0.621149 5.4722
rclavicle -7.92227e-016 7.95139e-016
rhumerus -31.8405 17.1482 -90.4955
rradius 31.5736
rwrist -15.3602
rhand -24.7355 -33.8462
rfingers 7.12502
rthumb 1.76704 -63.8186
lclavicle -7.92227e-016 7.95139e-016
lhumerus -34.5209 8.91203 81.5662
lradius 13.389
lwrist -19.4223
lhand -12.2164 -24.4357
lfingers 7.12502
lthumb 13.8485 5.08323
rfemur -22.5072 -5.61173 20.1641
rtibia 69.557
rfoot -1.60913 -15.784
rtoes -19.0344
lfemur -14.0289 4.59387 -27.0085
ltibia 17.2927
lfoot -8.77434 1.96974
ltoes 5.46425
223
root 9.62855 17.4923 13.2818 5.285 -3.09797 1.04425
lowerback -5.06784 -0.249882 -2.23698
upperback -1.45728 -0.23942 1.15069
thorax 1.35614 -0.122187 2.42419
lowerneck -22.788 -1.76794 -10.3781
upperneck 29.2237 -1.5939 9.13502
head 13.9173 -0.576129 5.19754
rclavicle -7.51189e-015 -1.98785e-015
rhumerus -32.4233 17.2222 -90.5174
rradius 31.4803
rwrist -14.8233
rhand -24.5792 -33.2914
rfingers 7.12502
rthumb 1.91801 -63.2626
lclavicle -7.51189e-015 -1.98785e-015
lhumerus -33.0425 5.20973 84.0995
lradius 14.7008
lwrist -14.5992
lhand -13.8914 -24.5746
lfingers 7.12502
lthumb 12.2338 5.04757
rfemur -23.6997 -5.75164 20.7704
rtibia 69.0508
rfoot -2.96859 -15.2214
rtoes -20.0311
lfemur -13.0746 4.14461 -26.7354
ltibia 17.2409
lfoot -9.48619 2.14812
ltoes 5.02101
224
root 9.63392 17.5013 13.4669 5.40302 -2.54163 0.644936
lowerback -5.17891 -0.466117 -1.84194
upperback -1.49313 -0.548834 1.3269
thorax 1.3977 -0.276395 2.36362
lowerneck -22.8118 -1.68604 -10.2371
upperneck 29.3924 -1.51147 9.0641
head 13.9821 -0.537403 5.16791
rclavicle -1.17244e-014 -2.78299e-015
rhumerus -33.3086 17.3662 -90.6717
rradius 31.4342
rwrist -14.8695
rhand -24.4054 -32.0806
rfingers 7.12502
rthumb 2.08587 -62.0501
lclavicle -1.17244e-014 -2.78299e-015
lhumerus -31.7534 2.38444 85.7557
lradius 15.7394
lwrist -11.8041
lhand -14.8147 -24.391
lfingers 7.12502
lthumb 11.3434 5.28225
rfemur -25.0722 -5.98543 21.5525
rtibia 68.3194
rfoot -4.17392 -14.5951
rtoes -21.2116
lfemur -12.4282 3.76499 -26.3202
ltibia 17.1638
lfoot -9.9766 2.1523
ltoes 3.78614
225
root 9.62664 17.5062 13.6606 5.32281 -2.17659 0.0491849
lowerback -5.14292 -0.595427 -1.39255
upperback -1.56687 -0.748352 1.56957
thorax 1.31052 -0.37395 2.34857
lowerneck -22.4658 -1.62059 -10.1628
upperneck 29.5044 -1.45697 8.97361
head 13.9473 -0.525425 5.12642
rclavicle 2.34581e-015 1.19271e-015
rhumerus -34.4214 17.4419 -90.9136
rradius 31.3401
rwrist -15.0054
rhand -24.7327 -30.7586
rfingers 7.12502
rthumb 1.76971 -60.731
lclavicle 2.34581e-015 1.19271e-015
lhumerus -30.7118 0.483222 86.6891
lradius 16.5713
lwrist -11.4837
lhand -15.2661 -24.2298
lfingers 7.12502
lthumb 10.9081 5.46685
rfemur -26.0998 -5.8112 22.5945
rtibia 67.3292
rfoot -5.17963 -14.2759
rtoes -20.1102
lfemur -11.6637 3.43342 -25.5887
ltibia 17.289
lfoot -10.6435 2.17012
ltoes 3.15659
226
root 9.63792 17.4989 13.8463 5.3801 -1.55324 0.522554
lowerback -5.29781 -0.908918 -1.8526
upperback -1.64843 -1.13985 1.53842
thorax 1.34107 -0.569415 2.54917
lowerneck -22.1104 -1.57488 -10.3011
upperneck 29.6003 -1.37703 8.96807
head 13.9029 -0.515046 5.16101
rclavicle -2.32485e-014 -1.98785e-015
rhumerus -35.3835 17.3595 -90.9763
rradius 31.2979
rwrist -14.8577
rhand -25.0335 -29.7316
rfingers 7.12502
rthumb 1.47917 -59.7062
lclavicle -2.32485e-014 -1.98785e-015
lhumerus -29.5832 -0.370104 87.1458
lradius 17.3683
lwrist -11.9685
lhand -14.7093 -24.1524
lfingers 7.12502
lthumb 11.4451 5.51517
rfemur -27.3721 -6.20921 22.2523
rtibia 66.3376
rfoot -5.97332 -13.51
rtoes -19.0013
lfemur -10.9557 3.03003 -26.1377
ltibia 17.2581
lfoot -11.3028 1.90659
ltoes 3.08393
227
root 9.62955 17.4837 14.0375 5.46654 -1.11347 0.597391
lowerback -5.56236 -1.16439 -2.13855
upperback -1.6377 -1.46358 1.67965
thorax 1.52896 -0.733956 2.82964
lowerneck -22.0125 -1.53634 -10.5897
upperneck 29.6728 -1.27478 9.12311
head 13.9027 -0.485832 5.29661
rclavicle -1.73673e-014 1.98785e-015
rhumerus -36.1978 17.7371 -91.095
rradius 31.4172
rwrist -15.1183
rhand -25.1156 -29.7813
rfingers 7.12502
rthumb 1.39996 -59.7565
lclavicle -1.73673e-014 1.98785e-015
lhumerus -28.3035 -1.80893 87.8977
lradius 18.3021
lwrist -10.2824
lhand -13.3762 -23.9221
lfingers 7.12502
lthumb 12.7305 5.66979
rfemur -28.6433 -6.09091 22.4427
rtibia 65.2123
rfoot -7.21098 -12.8249
rtoes -17.2199
lfemur -10.331 2.57696 -26.1583
ltibia 17.2218
lfoot -11.7407 1.95362
ltoes 2.52352
228
root 9.67786 17.4617 14.2097 5.14566 -0.156089 1.16779
lowerback -5.13702 -1.55307 -2.22864
upperback -1.56337 -1.98098 1.52418
thorax 1.39957 -0.991752 2.69257
lowerneck -22.266 -1.45997 -10.5248
upperneck 29.894 -1.12789 9.00272
head 14.0327 -0.433243 5.27863
rclavicle 2.47681e-014 -2.06736e-014
rhumerus -37.0003 18.238 -91.2982
rradius 31.6636
rwrist -15.6486
rhand -25.4366 -30.4259
rfingers 7.12502
rthumb 1.08989 -60.4029
lclavicle 2.47681e-014 -2.06736e-014
lhumerus -27.018 -4.67031 89.0649
lradius 19.2026
lwrist -6.77468
lhand -12.7808 -23.7953
lfingers 7.12502
lthumb 13.3045 5.75997
rfemur -29.2448 -7.52136 21.6502
rtibia 64.0399
rfoot -8.09004 -11.1063
rtoes -16.7374
lfemur -9.1817 2.16042 -26.9642
ltibia 17.1635
lfoot -12.2332 1.46996
ltoes 2.89191
229
root 9.65423 17.4309 14.4143 5.15454 -0.016992 1.56826
lowerback -5.47539 -1.69633 -3.10009
upperback -1.46757 -2.11867 1.56581
thorax 1.72794 -1.06875 3.20581
lowerneck -22.5195 -1.38339 -10.2557
upperneck 30.2174 -1.02323 8.75908
head 14.2126 -0.395229 5.17179
rclavicle -3.52105e-015 -7.95139e-015
rhumerus -37.8066 18.1444 -91.3122
rradius 31.8895
rwrist -15.7048
rhand -25.4731 -30.3461
rfingers 7.12502
rthumb 1.05466 -60.3232
lclavicle -3.52105e-015 -7.95139e-015
lhumerus -25.8002 -7.65561 89.9467
lradius 20.1382
lwrist -4.21934
lhand -12.7911 -23.8428
lfingers 7.12502
lthumb 13.2946 5.71312
rfemur -30.3715 -7.0477 21.6115
rtibia 62.6857
rfoot -8.75337 -10.9818
rtoes -17.8428
lfemur -8.61986 2.28751 -27.2859
ltibia 17.4232
lfoot -12.8527 1.05619
ltoes 3.4579
230
root 9.64243 17.4 14.6078 5.09656 0.322581 1.4851
lowerback -5.58789 -1.87963 -3.29218
upperback -1.38522 -2.35072 1.6655
thorax 1.90573 -1.19 3.39482
lowerneck -22.6097 -1.32353 -10.1003
upperneck 30.4337 -0.98524 8.72536
head 14.3211 -0.36958 5.15183
rclavicle 8.62791e-016 7.95139e-016
rhumerus -38.6252 17.9984 -91.3881
rradius 32.0239
rwrist -15.5766
rhand -25.0178 -29.9658
rfingers 7.12502
rthumb 1.49437 -59.9403
lclavicle 8.62791e-016 7.95139e-016
lhumerus -24.6163 -9.39294 90.1518
lradius 21.2871
lwrist -3.34709
lhand -12.6818 -24.0571
lfingers 7.12502
lthumb 13.3999 5.49196
rfemur -31.2647 -6.7283 21.9852
rtibia 61.0305
rfoot -9.51755 -10.9064
rtoes -18.9957
lfemur -7.94713 2.36839 -27.0807
ltibia 17.5956
lfoot -13.483 0.476784
ltoes 4.25577
